<?xml version="1.0" encoding="UTF-8" standalone="no"?>
<!-- Created with Inkscape (http://www.inkscape.org/) -->

<svg
   width="297mm"
   height="210mm"
   viewBox="0 0 297 210"
   version="1.1"
   id="svg5"
   xml:space="preserve"
   inkscape:version="1.2.1 (9c6d41e, 2022-07-14)"
   sodipodi:docname="tshirt.svg"
   inkscape:export-filename="../src/chromebooks-in-deutschland/tshirt.pdf"
   inkscape:export-xdpi="600"
   inkscape:export-ydpi="600"
   xmlns:inkscape="http://www.inkscape.org/namespaces/inkscape"
   xmlns:sodipodi="http://sodipodi.sourceforge.net/DTD/sodipodi-0.dtd"
   xmlns:xlink="http://www.w3.org/1999/xlink"
   xmlns="http://www.w3.org/2000/svg"
   xmlns:svg="http://www.w3.org/2000/svg"><sodipodi:namedview
     id="namedview7"
     pagecolor="#ffffff"
     bordercolor="#666666"
     borderopacity="1.0"
     inkscape:showpageshadow="2"
     inkscape:pageopacity="0.0"
     inkscape:pagecheckerboard="0"
     inkscape:deskcolor="#d1d1d1"
     inkscape:document-units="mm"
     showgrid="false"
     inkscape:zoom="0.914906"
     inkscape:cx="559.62033"
     inkscape:cy="496.77234"
     inkscape:window-width="1967"
     inkscape:window-height="1205"
     inkscape:window-x="0"
     inkscape:window-y="25"
     inkscape:window-maximized="0"
     inkscape:current-layer="g856" /><defs
     id="defs2"><linearGradient
       id="g"
       x1="29.337"
       x2="81.836998"
       y1="75.021004"
       y2="44.354"
       gradientUnits="userSpaceOnUse"
       xlink:href="#a" /><linearGradient
       id="h"
       x1="110.87"
       x2="52.537998"
       y1="164.5"
       y2="130.33"
       gradientUnits="userSpaceOnUse"
       xlink:href="#b" /><linearGradient
       id="k"
       x1="121.86"
       x2="136.55"
       y1="49.804001"
       y2="114.13"
       gradientUnits="userSpaceOnUse"
       xlink:href="#c" /><clipPath
       id="e"><path
         d="M 72.54,579.24 H 539.46 V 342.15 H 72.54 Z"
         id="path245" /></clipPath><circle
       id="d"
       cx="96"
       cy="96"
       r="88" /><path
       id="i"
       d="m 8,184 h 83.77 l 38.88,-38.88 V 116 H 61.36 L 8,24.48 Z" /><path
       id="m"
       d="m 96,56 34.65,60 -38.88,68 H 184 V 56 Z" /><path
       id="q"
       d="M 21.97,8 V 48.34 L 61.36,116 96,56 h 88 V 8 Z" /><linearGradient
       inkscape:collect="always"
       xlink:href="#a"
       id="linearGradient616"
       gradientUnits="userSpaceOnUse"
       x1="29.337"
       y1="75.021004"
       x2="81.836998"
       y2="44.354" /><linearGradient
       inkscape:collect="always"
       xlink:href="#b"
       id="linearGradient618"
       gradientUnits="userSpaceOnUse"
       x1="110.87"
       y1="164.5"
       x2="52.537998"
       y2="130.33" /><linearGradient
       inkscape:collect="always"
       xlink:href="#c"
       id="linearGradient620"
       gradientUnits="userSpaceOnUse"
       x1="121.86"
       y1="49.804001"
       x2="136.55"
       y2="114.13" /></defs><g
     inkscape:label="Layer 1"
     inkscape:groupmode="layer"
     id="layer1"><g
       id="g856"
       transform="translate(0,34.741969)"><g
         id="g506"
         transform="matrix(0.16538133,0,0,0.16538133,7.5177555,9.1261761)"><g
           stroke="#000000"
           id="g302"><g
             fill="#ffffff"
             clip-path="url(#e)"
             transform="matrix(6.46913,0,0,-6.46913,-468.27,3742.108)"
             id="g276"><path
               stroke-linecap="round"
               stroke-linejoin="round"
               stroke-miterlimit="10"
               stroke-width="0.6"
               d="m 137.86,534.92 h 2.1 l 10.081,-22.441 H 72.818 l 7.02,22.441 h 2.1 m 9.24,0 h 37.442 m 0.014,-27.237 H 72.818 v 4.796 h 77.223 v -4.796 H 128.56"
               id="path274" /></g><g
             clip-path="url(#e)"
             transform="matrix(6.46913,0,0,-6.46913,-468.27,3742.108)"
             id="g280"><path
               fill="none"
               stroke-linecap="round"
               stroke-linejoin="round"
               stroke-miterlimit="10"
               stroke-width="0.6"
               d="m 134.54,523.67 2.19,-5.67 m 13.321,-5.52 H 72.828 m 11.1,16.86 -3.54,-11.34 h 61.082 l -5.1,11.34 z m -0.9,-2.82 H 137.63 M 82.128,523.7 H 138.95 M 81.288,520.88 H 140.21 M 85.068,518 l 2.88,11.34 m 8.101,0 L 94.488,518 m 5.581,11.34 -0.675,-8.505 m 4.695,8.505 -0.18,-8.505 m 4.2,8.505 0.36,-8.505 m 3.72,8.505 0.81,-8.505 m 3.21,8.505 1.305,-8.505 m 2.716,8.505 1.845,-8.505 m 2.175,8.505 3.12,-11.34 m 4.98,11.34 1.095,-2.835 M 128.33,529.34 132.05,518 M 91.968,529.34 89.748,518 m -16.92,-10.317 v 4.796 h 77.223 v -4.796"
               id="path278" /></g><g
             fill="#ffffff"
             clip-path="url(#e)"
             transform="matrix(6.46913,0,0,-6.46913,-468.27,3742.108)"
             id="g284"><path
               stroke-linecap="round"
               stroke-linejoin="round"
               stroke-miterlimit="10"
               stroke-width="0.6"
               d="M 137.86,535.46 H 79.845 v 42.542 h 60.122 V 535.46 h -2.1"
               id="path282" /></g><g
             fill="#7f7f7f"
             stroke-linecap="round"
             stroke-linejoin="round"
             stroke-miterlimit="10"
             stroke-width="0.6"
             clip-path="url(#e)"
             transform="matrix(6.46913,0,0,-6.46913,-468.27,3742.108)"
             id="g290"><path
               d="m 85.303,574.28 h 49.502 V 539.179 H 85.303 Z"
               id="path286" /><path
               d="m 85.303,574.28 h 49.502 V 539.179 H 85.303 Z"
               id="path288" /></g><path
             fill="#e3e3e3"
             fill-rule="evenodd"
             stroke-width="6.469"
             d="M 83.567,254.158 H 403.805"
             id="path292" /><g
             clip-path="url(#e)"
             transform="matrix(6.46913,0,0,-6.46913,-468.27,3742.108)"
             id="g296"><path
               fill="none"
               stroke-linecap="round"
               stroke-linejoin="round"
               stroke-miterlimit="10"
               stroke-width="0.6"
               d="m 137.86,536.18 h -9.24 v -1.98 h 9.24 z"
               id="path294" /></g><g
             clip-path="url(#e)"
             transform="matrix(6.46913,0,0,-6.46913,-468.27,3742.108)"
             id="g300"><path
               fill="none"
               stroke-linecap="round"
               stroke-linejoin="round"
               stroke-miterlimit="10"
               stroke-width="0.6"
               d="m 81.943,536.18 h 9.24 v -1.98 h -9.24 z"
               id="path298" /></g></g><g
           transform="translate(146.546,54.15)"
           id="g413"><g
             clip-path="url(#f)"
             transform="translate(-7,-7)"
             id="g313"><path
               fill="#db4437"
               d="M 21.97,8 V 116 H 61.36 L 96,56 h 88 V 8 Z"
               id="path304" /><linearGradient
               id="a"
               x1="29.337"
               x2="81.836998"
               y1="75.021004"
               y2="44.354"
               gradientUnits="userSpaceOnUse"><stop
                 offset="0"
                 stop-color="#A52714"
                 stop-opacity=".6"
                 id="stop306" /><stop
                 offset=".66"
                 stop-color="#A52714"
                 stop-opacity="0"
                 id="stop308" /></linearGradient><path
               fill="url(#g)"
               d="M 21.97,8 V 116 H 61.36 L 96,56 h 88 V 8 Z"
               id="path311"
               style="fill:url(#linearGradient616)" /></g><path
             fill="#3e2723"
             fill-opacity="0.15"
             d="m 62.31,115.65 -39.83,-68.31 -0.58,1 39.54,67.8 z"
             clip-path="url(#f)"
             transform="translate(-7,-7)"
             id="path315" /><g
             clip-path="url(#f)"
             transform="translate(-7,-7)"
             id="g326"><path
               fill="#0f9d58"
               d="m 8,184 h 83.77 l 38.88,-38.88 V 116 H 61.36 L 8,24.48 Z"
               id="path317" /><linearGradient
               id="b"
               x1="110.87"
               x2="52.537998"
               y1="164.5"
               y2="130.33"
               gradientUnits="userSpaceOnUse"><stop
                 offset="0"
                 stop-color="#055524"
                 stop-opacity=".4"
                 id="stop319" /><stop
                 offset=".33"
                 stop-color="#055524"
                 stop-opacity="0"
                 id="stop321" /></linearGradient><path
               fill="url(#h)"
               d="m 8,184 h 83.77 l 38.88,-38.88 V 116 H 61.36 L 8,24.48 Z"
               id="path324"
               style="fill:url(#linearGradient618)" /></g><path
             fill="#263238"
             fill-opacity="0.15"
             d="M 129.84,117.33 129.01,116.85 90.62,184 h 1.15 l 38.1,-66.64 z"
             clip-path="url(#f)"
             transform="translate(-7,-7)"
             id="path328" /><g
             clip-path="url(#f)"
             transform="translate(-7,-7)"
             id="g347"><defs
               id="defs331"><path
                 id="path457"
                 d="m 8,184 h 83.77 l 38.88,-38.88 V 116 H 61.36 L 8,24.48 Z" /></defs><clipPath
               id="j"><use
                 width="100%"
                 height="100%"
                 overflow="visible"
                 xlink:href="#i"
                 id="use333" /></clipPath><g
               clip-path="url(#j)"
               id="g345"><path
                 fill="#ffcd40"
                 d="m 96,56 34.65,60 -38.88,68 H 184 V 56 Z"
                 id="path336" /><linearGradient
                 id="c"
                 x1="121.86"
                 x2="136.55"
                 y1="49.804001"
                 y2="114.13"
                 gradientUnits="userSpaceOnUse"><stop
                   offset="0"
                   stop-color="#EA6100"
                   stop-opacity=".3"
                   id="stop338" /><stop
                   offset=".66"
                   stop-color="#EA6100"
                   stop-opacity="0"
                   id="stop340" /></linearGradient><path
                 fill="url(#k)"
                 d="m 96,56 34.65,60 -38.88,68 H 184 V 56 Z"
                 id="path343"
                 style="fill:url(#linearGradient620)" /></g></g><g
             clip-path="url(#f)"
             transform="translate(-7,-7)"
             id="g353"><path
               fill="#ffcd40"
               d="m 96,56 34.65,60 -38.88,68 H 184 V 56 Z"
               id="path349" /><path
               fill="url(#l)"
               d="m 96,56 34.65,60 -38.88,68 H 184 V 56 Z"
               id="path351"
               style="fill:url(#k)" /></g><g
             clip-path="url(#f)"
             transform="translate(-7,-7)"
             id="g367"><defs
               id="defs356"><path
                 id="path472"
                 d="m 96,56 34.65,60 -38.88,68 H 184 V 56 Z" /></defs><clipPath
               id="n"><use
                 width="100%"
                 height="100%"
                 overflow="visible"
                 xlink:href="#m"
                 id="use358" /></clipPath><g
               clip-path="url(#n)"
               id="g365"><path
                 fill="#db4437"
                 d="M 21.97,8 V 116 H 61.36 L 96,56 h 88 V 8 Z"
                 id="path361" /><path
                 fill="url(#o)"
                 d="M 21.97,8 V 116 H 61.36 L 96,56 h 88 V 8 Z"
                 id="path363"
                 style="fill:url(#g)" /></g></g><path
             fill="url(#p)"
             d="M 96,56 V 76.95 L 174.4,56 Z"
             clip-path="url(#f)"
             transform="translate(-7,-7)"
             id="path369" /><g
             clip-path="url(#f)"
             transform="translate(-7,-7)"
             id="g383"><defs
               id="defs372"><path
                 id="path482"
                 d="M 21.97,8 V 48.34 L 61.36,116 96,56 h 88 V 8 Z" /></defs><clipPath
               id="r"><use
                 width="100%"
                 height="100%"
                 overflow="visible"
                 xlink:href="#q"
                 id="use374" /></clipPath><g
               clip-path="url(#r)"
               id="g381"><path
                 fill="#0f9d58"
                 d="m 8,184 h 83.77 l 38.88,-38.88 V 116 H 61.36 L 8,24.48 Z"
                 id="path377" /><path
                 fill="url(#s)"
                 d="m 8,184 h 83.77 l 38.88,-38.88 V 116 H 61.36 L 8,24.48 Z"
                 id="path379"
                 style="fill:url(#h)" /></g></g><path
             fill="url(#t)"
             d="M 21.97,48.45 79.22,105.69 61.36,116 Z"
             clip-path="url(#f)"
             transform="translate(-7,-7)"
             id="path385" /><path
             fill="url(#u)"
             d="m 91.83,183.89 20.96,-78.2 17.86,10.31 z"
             clip-path="url(#f)"
             transform="translate(-7,-7)"
             id="path387" /><g
             clip-path="url(#f)"
             transform="translate(-7,-7)"
             id="g393"><circle
               cx="96"
               cy="96"
               r="40"
               fill="#f1f1f1"
               id="circle389" /><circle
               cx="96"
               cy="96"
               r="32"
               fill="#4285f4"
               id="circle391" /></g><g
             clip-path="url(#f)"
             transform="translate(-7,-7)"
             id="g403"><path
               fill="#3e2723"
               fill-opacity="0.2"
               d="M 96,55 C 73.91,55 56,72.91 56,95 v 1 C 56,73.91 73.91,56 96,56 h 88 v -1 z"
               id="path395" /><path
               fill="#ffffff"
               fill-opacity="0.1"
               d="m 130.6,116 c -6.92,11.94 -19.81,20 -34.6,20 -14.8,0 -27.69,-8.06 -34.61,-20 H 61.35 L 8,24.48 v 1 L 61.36,117 h 0.04 c 6.92,11.94 19.81,20 34.61,20 14.79,0 27.68,-8.05 34.6,-20 h 0.05 v -1 z"
               id="path397" /><path
               fill="#3e2723"
               d="m 97,56 c -0.17,0 -0.33,0.02 -0.5,0.03 21.86,0.27 39.5,18.05 39.5,39.97 0,21.92 -17.64,39.7 -39.5,39.97 0.17,0 0.33,0.03 0.5,0.03 22.09,0 40,-17.91 40,-40 0,-22.09 -17.91,-40 -40,-40 z"
               opacity="0.1"
               id="path399" /><path
               fill="#ffffff"
               fill-opacity="0.2"
               d="m 131,117.33 c 3.4,-5.88 5.37,-12.68 5.37,-19.96 0,-4.22 -0.66,-8.28 -1.87,-12.09 0.95,3.42 1.5,7.01 1.5,10.73 0,7.28 -1.97,14.08 -5.37,19.96 l 0.02,0.04 -38.88,68 h 1.16 l 38.09,-66.64 z"
               id="path401" /></g><g
             clip-path="url(#f)"
             transform="translate(-7,-7)"
             id="g409"><path
               fill="#ffffff"
               fill-opacity="0.2"
               d="m 96,9 c 48.43,0 87.72,39.13 87.99,87.5 0,-0.17 0.01,-0.33 0.01,-0.5 C 184,47.4 144.6,8 96,8 47.4,8 8,47.4 8,96 8,96.17 8.01,96.33 8.01,96.5 8.28,48.13 47.57,9 96,9 Z"
               id="path405" /><path
               fill="#3e2723"
               fill-opacity="0.15"
               d="m 96,183 c 48.43,0 87.72,-39.13 87.99,-87.5 0,0.17 0.01,0.33 0.01,0.5 0,48.6 -39.4,88 -88,88 C 47.4,184 8,144.6 8,96 8,95.83 8.01,95.67 8.01,95.5 8.28,143.87 47.57,183 96,183 Z"
               id="path407" /></g><circle
             cx="89"
             cy="89"
             r="88"
             fill="url(#v)"
             id="circle411" /></g></g><text
         xml:space="preserve"
         style="font-style:normal;font-variant:normal;font-weight:bold;font-stretch:normal;font-size:50.6625px;line-height:1.25;font-family:'Linux Biolinum';-inkscape-font-specification:'Linux Biolinum, Bold';font-variant-ligatures:normal;font-variant-caps:normal;font-variant-numeric:normal;font-variant-east-asian:normal;fill:#000000;fill-opacity:1;stroke:none;stroke-width:1.26657"
         x="4.98244"
         y="125.18079"
         id="text726"
         transform="scale(0.92497714,1.0811078)"><tspan
           sodipodi:role="line"
           id="tspan724"
           style="font-style:normal;font-variant:normal;font-weight:bold;font-stretch:normal;font-size:50.6625px;font-family:'Linux Biolinum';-inkscape-font-specification:'Linux Biolinum, Bold';font-variant-ligatures:normal;font-variant-caps:normal;font-variant-numeric:normal;font-variant-east-asian:normal;stroke-width:1.26657"
           x="4.98244"
           y="125.18079">ChromeIn.De</tspan></text><text
         xml:space="preserve"
         style="font-style:normal;font-variant:normal;font-weight:normal;font-stretch:normal;font-size:25.9953px;line-height:1.25;font-family:sans-serif;-inkscape-font-specification:'sans-serif, Normal';font-variant-ligatures:normal;font-variant-caps:normal;font-variant-numeric:normal;font-variant-east-asian:normal;fill:#000000;fill-opacity:1;stroke:none;stroke-width:0.649882"
         x="96.08876"
         y="29.022022"
         id="text1656"><tspan
           sodipodi:role="line"
           id="tspan1660"
           x="96.08876"
           y="29.022022"
           style="stroke-width:0.649882">Chromebooks</tspan><tspan
           sodipodi:role="line"
           x="96.08876"
           y="61.516148"
           style="stroke-width:0.649882"
           id="tspan1664">Marktübersicht</tspan></text></g></g></svg>
