<svg xmlns="http://www.w3.org/2000/svg" xmlns:xlink="http://www.w3.org/1999/xlink" viewBox="1 1 503.397 458.808">
  <defs>
    <linearGradient id="g" x1="29.337" x2="81.837" y1="75.021" y2="44.354" gradientUnits="userSpaceOnUse" xlink:href="#a"/>
    <linearGradient id="h" x1="110.87" x2="52.538" y1="164.5" y2="130.33" gradientUnits="userSpaceOnUse" xlink:href="#b"/>
    <linearGradient id="k" x1="121.86" x2="136.55" y1="49.804" y2="114.13" gradientUnits="userSpaceOnUse" xlink:href="#c"/>
    <linearGradient id="l" x1="121.86" x2="136.55" y1="49.804" y2="114.13" gradientUnits="userSpaceOnUse" xlink:href="#c"/>
    <linearGradient id="o" x1="29.337" x2="81.837" y1="75.021" y2="44.354" gradientUnits="userSpaceOnUse" xlink:href="#a"/>
    <linearGradient id="s" x1="110.87" x2="52.538" y1="164.5" y2="130.33" gradientUnits="userSpaceOnUse" xlink:href="#b"/>
    <clipPath id="e">
      <path d="M72.54 579.24h466.92V342.15H72.54z"/>
    </clipPath>
    <circle id="d" cx="96" cy="96" r="88"/>
  </defs>
  <clipPath id="f">
    <use width="100%" height="100%" overflow="visible" xlink:href="#d"/>
  </clipPath>
  <radialGradient id="p" cx="668.18" cy="55.948" r="84.078" gradientTransform="translate(-576)" gradientUnits="userSpaceOnUse">
    <stop offset="0" stop-color="#3E2723" stop-opacity=".2"/>
    <stop offset="1" stop-color="#3E2723" stop-opacity="0"/>
  </radialGradient>
  <radialGradient id="t" cx="597.88" cy="48.52" r="78.044" gradientTransform="translate(-576)" gradientUnits="userSpaceOnUse">
    <stop offset="0" stop-color="#3E2723" stop-opacity=".2"/>
    <stop offset="1" stop-color="#3E2723" stop-opacity="0"/>
  </radialGradient>
  <radialGradient id="u" cx="671.84" cy="96.138" r="87.87" gradientTransform="translate(-576)" gradientUnits="userSpaceOnUse">
    <stop offset="0" stop-color="#263238" stop-opacity=".2"/>
    <stop offset="1" stop-color="#263238" stop-opacity="0"/>
  </radialGradient>
  <radialGradient id="v" cx="34.286" cy="32.014" r="176.75" gradientTransform="translate(-7 -7)" gradientUnits="userSpaceOnUse">
    <stop offset="0" stop-color="#fff" stop-opacity=".1"/>
    <stop offset="1" stop-color="#fff" stop-opacity="0"/>
  </radialGradient>
  <g stroke="#000">
    <g fill="#fff" clip-path="url(#e)" transform="matrix(6.46913 0 0 -6.46913 -468.27 3742.108)">
      <path stroke-linecap="round" stroke-linejoin="round" stroke-miterlimit="10" stroke-width=".6" d="M137.86 534.92h2.1l10.081-22.441H72.818l7.02 22.441h2.1m9.24 0h37.442m.014-27.237H72.818v4.796h77.223v-4.796H128.56"/>
    </g>
    <g clip-path="url(#e)" transform="matrix(6.46913 0 0 -6.46913 -468.27 3742.108)">
      <path fill="none" stroke-linecap="round" stroke-linejoin="round" stroke-miterlimit="10" stroke-width=".6" d="M134.54 523.67l2.19-5.67m13.321-5.52H72.828m11.1 16.86L80.388 518h61.082l-5.1 11.34zm-.9-2.82h54.602m-55.502-2.82h56.822m-57.662-2.82h58.922M85.068 518l2.88 11.34m8.101 0L94.488 518m5.581 11.34l-.675-8.505m4.695 8.505l-.18-8.505m4.2 8.505l.36-8.505m3.72 8.505l.81-8.505m3.21 8.505l1.305-8.505m2.716 8.505l1.845-8.505m2.175 8.505l3.12-11.34m4.98 11.34l1.095-2.835m-5.115 2.835l3.72-11.34m-40.082 11.34L89.748 518m-16.92-10.317v4.796h77.223v-4.796"/>
    </g>
    <g fill="#fff" clip-path="url(#e)" transform="matrix(6.46913 0 0 -6.46913 -468.27 3742.108)">
      <path stroke-linecap="round" stroke-linejoin="round" stroke-miterlimit="10" stroke-width=".6" d="M137.86 535.46H79.845v42.542h60.122V535.46h-2.1"/>
    </g>
    <g fill="#7f7f7f" stroke-linecap="round" stroke-linejoin="round" stroke-miterlimit="10" stroke-width=".6" clip-path="url(#e)" transform="matrix(6.46913 0 0 -6.46913 -468.27 3742.108)">
      <path d="M85.303 574.28h49.502v-35.101H85.303z"/>
      <path d="M85.303 574.28h49.502v-35.101H85.303z"/>
    </g>
    <path fill="#e3e3e3" fill-rule="evenodd" stroke-width="6.469" d="M83.567 254.158h320.238"/>
    <g clip-path="url(#e)" transform="matrix(6.46913 0 0 -6.46913 -468.27 3742.108)">
      <path fill="none" stroke-linecap="round" stroke-linejoin="round" stroke-miterlimit="10" stroke-width=".6" d="M137.86 536.18h-9.24v-1.98h9.24z"/>
    </g>
    <g clip-path="url(#e)" transform="matrix(6.46913 0 0 -6.46913 -468.27 3742.108)">
      <path fill="none" stroke-linecap="round" stroke-linejoin="round" stroke-miterlimit="10" stroke-width=".6" d="M81.943 536.18h9.24v-1.98h-9.24z"/>
    </g>
  </g>
  <g transform="translate(146.546 54.15)">
    <g clip-path="url(#f)" transform="translate(-7 -7)">
      <path fill="#db4437" d="M21.97 8v108h39.39L96 56h88V8z"/>
      <linearGradient id="a" x1="29.337" x2="81.837" y1="75.021" y2="44.354" gradientUnits="userSpaceOnUse">
        <stop offset="0" stop-color="#A52714" stop-opacity=".6"/>
        <stop offset=".66" stop-color="#A52714" stop-opacity="0"/>
      </linearGradient>
      <path fill="url(#g)" d="M21.97 8v108h39.39L96 56h88V8z"/>
    </g>
    <path fill="#3e2723" fill-opacity=".15" d="M62.31 115.65L22.48 47.34l-.58 1 39.54 67.8z" clip-path="url(#f)" transform="translate(-7 -7)"/>
    <g clip-path="url(#f)" transform="translate(-7 -7)">
      <path fill="#0f9d58" d="M8 184h83.77l38.88-38.88V116H61.36L8 24.48z"/>
      <linearGradient id="b" x1="110.87" x2="52.538" y1="164.5" y2="130.33" gradientUnits="userSpaceOnUse">
        <stop offset="0" stop-color="#055524" stop-opacity=".4"/>
        <stop offset=".33" stop-color="#055524" stop-opacity="0"/>
      </linearGradient>
      <path fill="url(#h)" d="M8 184h83.77l38.88-38.88V116H61.36L8 24.48z"/>
    </g>
    <path fill="#263238" fill-opacity=".15" d="M129.84 117.33l-.83-.48L90.62 184h1.15l38.1-66.64z" clip-path="url(#f)" transform="translate(-7 -7)"/>
    <g clip-path="url(#f)" transform="translate(-7 -7)">
      <defs>
        <path id="i" d="M8 184h83.77l38.88-38.88V116H61.36L8 24.48z"/>
      </defs>
      <clipPath id="j">
        <use width="100%" height="100%" overflow="visible" xlink:href="#i"/>
      </clipPath>
      <g clip-path="url(#j)">
        <path fill="#ffcd40" d="M96 56l34.65 60-38.88 68H184V56z"/>
        <linearGradient id="c" x1="121.86" x2="136.55" y1="49.804" y2="114.13" gradientUnits="userSpaceOnUse">
          <stop offset="0" stop-color="#EA6100" stop-opacity=".3"/>
          <stop offset=".66" stop-color="#EA6100" stop-opacity="0"/>
        </linearGradient>
        <path fill="url(#k)" d="M96 56l34.65 60-38.88 68H184V56z"/>
      </g>
    </g>
    <g clip-path="url(#f)" transform="translate(-7 -7)">
      <path fill="#ffcd40" d="M96 56l34.65 60-38.88 68H184V56z"/>
      <path fill="url(#l)" d="M96 56l34.65 60-38.88 68H184V56z"/>
    </g>
    <g clip-path="url(#f)" transform="translate(-7 -7)">
      <defs>
        <path id="m" d="M96 56l34.65 60-38.88 68H184V56z"/>
      </defs>
      <clipPath id="n">
        <use width="100%" height="100%" overflow="visible" xlink:href="#m"/>
      </clipPath>
      <g clip-path="url(#n)">
        <path fill="#db4437" d="M21.97 8v108h39.39L96 56h88V8z"/>
        <path fill="url(#o)" d="M21.97 8v108h39.39L96 56h88V8z"/>
      </g>
    </g>
    <path fill="url(#p)" d="M96 56v20.95L174.4 56z" clip-path="url(#f)" transform="translate(-7 -7)"/>
    <g clip-path="url(#f)" transform="translate(-7 -7)">
      <defs>
        <path id="q" d="M21.97 8v40.34L61.36 116 96 56h88V8z"/>
      </defs>
      <clipPath id="r">
        <use width="100%" height="100%" overflow="visible" xlink:href="#q"/>
      </clipPath>
      <g clip-path="url(#r)">
        <path fill="#0f9d58" d="M8 184h83.77l38.88-38.88V116H61.36L8 24.48z"/>
        <path fill="url(#s)" d="M8 184h83.77l38.88-38.88V116H61.36L8 24.48z"/>
      </g>
    </g>
    <path fill="url(#t)" d="M21.97 48.45l57.25 57.24L61.36 116z" clip-path="url(#f)" transform="translate(-7 -7)"/>
    <path fill="url(#u)" d="M91.83 183.89l20.96-78.2L130.65 116z" clip-path="url(#f)" transform="translate(-7 -7)"/>
    <g clip-path="url(#f)" transform="translate(-7 -7)">
      <circle cx="96" cy="96" r="40" fill="#f1f1f1"/>
      <circle cx="96" cy="96" r="32" fill="#4285f4"/>
    </g>
    <g clip-path="url(#f)" transform="translate(-7 -7)">
      <path fill="#3e2723" fill-opacity=".2" d="M96 55c-22.09 0-40 17.91-40 40v1c0-22.09 17.91-40 40-40h88v-1z"/>
      <path fill="#fff" fill-opacity=".1" d="M130.6 116c-6.92 11.94-19.81 20-34.6 20-14.8 0-27.69-8.06-34.61-20h-.04L8 24.48v1L61.36 117h.04c6.92 11.94 19.81 20 34.61 20 14.79 0 27.68-8.05 34.6-20h.05v-1z"/>
      <path fill="#3e2723" d="M97 56c-.17 0-.33.02-.5.03C118.36 56.3 136 74.08 136 96c0 21.92-17.64 39.7-39.5 39.97.17 0 .33.03.5.03 22.09 0 40-17.91 40-40s-17.91-40-40-40z" opacity=".1"/>
      <path fill="#fff" fill-opacity=".2" d="M131 117.33c3.4-5.88 5.37-12.68 5.37-19.96 0-4.22-.66-8.28-1.87-12.09.95 3.42 1.5 7.01 1.5 10.73 0 7.28-1.97 14.08-5.37 19.96l.02.04-38.88 68h1.16l38.09-66.64z"/>
    </g>
    <g clip-path="url(#f)" transform="translate(-7 -7)">
      <path fill="#fff" fill-opacity=".2" d="M96 9c48.43 0 87.72 39.13 87.99 87.5 0-.17.01-.33.01-.5 0-48.6-39.4-88-88-88S8 47.4 8 96c0 .17.01.33.01.5C8.28 48.13 47.57 9 96 9z"/>
      <path fill="#3e2723" fill-opacity=".15" d="M96 183c48.43 0 87.72-39.13 87.99-87.5 0 .17.01.33.01.5 0 48.6-39.4 88-88 88S8 144.6 8 96c0-.17.01-.33.01-.5C8.28 143.87 47.57 183 96 183z"/>
    </g>
    <circle cx="89" cy="89" r="88" fill="url(#v)"/>
  </g>
</svg>
